<svg xmlns="http://www.w3.org/2000/svg" xmlns:xlink="http://www.w3.org/1999/xlink" width="558" height="487"><style><![CDATA[.B{fill-rule:nonzero}.C{fill:#fff}.D{fill:#f38840}.E{fill:#ce7539}.F{fill:#f7893f}.G{fill:#25326a}.H{fill:#a75117}.I{fill:#cadef1}.J{fill:#4577bb}.K{stroke:#6193d7}.L{stroke-width:.908}.M{fill:#d6ac8e}.N{fill:url(#B)}.O{stroke:#ffede1}.P{fill:#f5f6fd}.Q{fill:#eff0f8}.R{stroke-width:.5}.S{fill:#d3d6e1}.T{stroke-width:.616}]]></style><defs><linearGradient x1="36.0072622%" y1="60.923627%" x2="94.8343232%" y2="51.941029%" id="A"><stop stop-color="#cbdff1" offset="0%"/><stop stop-color="#fff" offset="100%"/></linearGradient><linearGradient x1="0%" y1="45.2818917%" x2="100%" y2="50%" id="B"><stop stop-color="#cbdff1" offset="0%"/><stop stop-color="#95b9ea" offset="100%"/></linearGradient><path d="M11.59 77.006v-7.26c0-1.387.753-2.665 1.967-3.337l26.106-14.456a1.91 1.91 0 0 1 2.593.745c.157.283.24.6.24.924v6.27L11.59 77.006z" id="C"/><path d="M0 24.073a1.81 1.81 0 0 0 2.733 1.555L33.366 7.414a5.19 5.19 0 0 0 2.538-4.461 1.7 1.7 0 0 0-2.552-1.467l-30.604 17.8A5.53 5.53 0 0 0 0 24.073z" id="D"/><ellipse id="E" cx=".909" cy="1.363" rx="1" ry="1.363"/><ellipse id="F" cx=".909" cy="1.363" rx="1" ry="1.363"/><ellipse id="G" cx=".909" cy="1.363" rx="1" ry="1.363"/><ellipse id="H" cx=".909" cy="1.363" rx="1" ry="1.363"/><ellipse id="I" cx=".909" cy="1.363" rx="1" ry="1.363"/><ellipse id="J" cx=".909" cy="1.363" rx="1" ry="1.363"/><ellipse id="K" cx=".909" cy="1.363" rx="1" ry="1.363"/><ellipse id="L" cx=".909" cy="1.363" rx="1" ry="1.363"/><ellipse id="M" cx=".909" cy="1.363" rx="1" ry="1.363"/><ellipse id="N" cx=".909" cy="1.363" rx="1" ry="1.363"/><ellipse id="O" cx=".909" cy="1.363" rx="1" ry="1.363"/><ellipse id="P" cx=".909" cy="1.363" rx="1" ry="1.363"/><path d="M11.59 77.006v-7.26c0-1.387.753-2.665 1.967-3.337l26.106-14.456a1.91 1.91 0 0 1 2.593.745c.157.283.24.6.24.924v6.27L11.59 77.006z" id="Q"/><path d="M0 24.073a1.81 1.81 0 0 0 2.733 1.555L33.366 7.414a5.19 5.19 0 0 0 2.538-4.461 1.7 1.7 0 0 0-2.552-1.467l-30.604 17.8A5.53 5.53 0 0 0 0 24.073z" id="R"/><ellipse id="S" cx=".909" cy="1.363" rx="1" ry="1.363"/><ellipse id="T" cx=".909" cy="1.363" rx="1" ry="1.363"/><ellipse id="U" cx=".909" cy="1.363" rx="1" ry="1.363"/><ellipse id="V" cx=".909" cy="1.363" rx="1" ry="1.363"/><ellipse id="W" cx=".909" cy="1.363" rx="1" ry="1.363"/><ellipse id="X" cx=".909" cy="1.363" rx="1" ry="1.363"/><ellipse id="Y" cx=".909" cy="1.363" rx="1" ry="1.363"/><ellipse id="Z" cx=".909" cy="1.363" rx="1" ry="1.363"/><ellipse id="a" cx=".909" cy="1.363" rx="1" ry="1.363"/><ellipse id="b" cx=".909" cy="1.363" rx="1" ry="1.363"/><ellipse id="c" cx=".909" cy="1.363" rx="1" ry="1.363"/><ellipse id="d" cx=".909" cy="1.363" rx="1" ry="1.363"/><linearGradient x1="50%" y1="0%" x2="50%" y2="84.3149255%" id="e"><stop stop-color="#ebedf2" offset="0%"/><stop stop-color="#4577bb" offset="100%"/></linearGradient><path d="M6.868 6.16l17.08 2.782a1.64 1.64 0 0 1 1.268 1.029l7.363 19.09a1.64 1.64 0 0 1-1.788 2.212l-16.9-2.676a1.64 1.64 0 0 1-1.271-1.022L5.076 8.38a1.64 1.64 0 0 1 1.792-2.22z" id="f"/><linearGradient x1="50%" y1="0%" x2="50%" y2="100%" id="g"><stop stop-color="#e7f1f9" offset="0%"/><stop stop-color="#cadef1" offset="100%"/></linearGradient><radialGradient cx="12.9695919%" cy="100%" fx="12.9695919%" fy="100%" r="93.3674454%" gradientTransform="translate(0.129696,1.000000),scale(1.000000,0.973155),rotate(-138.517505),translate(-0.129696,-1.000000)" id="h"><stop stop-color="#f7893f" offset="0%"/><stop stop-color="#ef853f" offset="26.0220963%"/><stop stop-color="#f5f6fd" stop-opacity="0" offset="100%"/></radialGradient><path d="M29.405 37.366l18.38 2.98a1.64 1.64 0 0 1 1.268 1.027l7.9 20.393a1.64 1.64 0 0 1-1.786 2.215l-18.195-2.867a1.64 1.64 0 0 1-1.272-1.019L27.615 39.59a1.64 1.64 0 0 1 1.79-2.223z" id="i"/><filter x="-53.0%" y="-55.1%" width="206.1%" height="217.6%" id="j"><feGaussianBlur stdDeviation="-0.0597495547 1.14008942" in="SourceGraphic"/></filter><filter x="-75.0%" y="-79.4%" width="250.1%" height="266.4%" id="k"><feMorphology radius="0.25" operator="dilate" in="SourceAlpha"/><feOffset dy="1" result="B"/><feMorphology radius="1" in="SourceAlpha"/><feOffset dy="1"/><feComposite in="B" operator="out" result="B"/><feGaussianBlur stdDeviation="6"/><feColorMatrix values="0 0 0 0 1 0 0 0 0 1 0 0 0 0 1 0 0 0 0.5 0"/></filter><path d="M29.405 25.092l18.38 2.98a1.64 1.64 0 0 1 1.268 1.027l7.9 20.393a1.64 1.64 0 0 1-1.786 2.215L36.972 48.84a1.64 1.64 0 0 1-1.272-1.019l-8.085-20.506a1.64 1.64 0 0 1 1.79-2.223z" id="l"/><linearGradient x1="50%" y1="69.5324808%" x2="50%" y2="3.061617e-15%" id="m"><stop stop-color="#fff" stop-opacity="0" offset="0%"/><stop stop-color="#f7893f" offset="100%"/></linearGradient><linearGradient x1="50%" y1="69.5324808%" x2="50%" y2="3.061617e-15%" id="n"><stop stop-color="#f4883e" stop-opacity="0" offset="0%"/><stop stop-color="#f7893f" offset="100%"/></linearGradient><path d="M10.33 9.243l25.742 4.18a2.46 2.46 0 0 1 1.902 1.542l11.09 28.654c.49 1.268-.14 2.694-1.408 3.185a2.46 2.46 0 0 1-1.272.136l-25.484-4.02a2.46 2.46 0 0 1-1.907-1.53L7.644 12.576c-.498-1.265.123-2.695 1.39-3.193a2.46 2.46 0 0 1 1.297-.139z" id="o"/><radialGradient cx="12.9695919%" cy="100%" fx="12.9695919%" fy="100%" r="93.2317414%" gradientTransform="translate(0.129696,1.000000),scale(1.000000,0.976393),rotate(-138.611914),translate(-0.129696,-1.000000)" id="p"><stop stop-color="#f7893f" offset="0%"/><stop stop-color="#ef853f" offset="26.0220963%"/><stop stop-color="#eff0f8" offset="100%"/></radialGradient><path d="M42.762 56.983l27.697 4.476a2.46 2.46 0 0 1 1.902 1.539l11.9 30.61c.493 1.268-.135 2.695-1.403 3.187a2.46 2.46 0 0 1-1.274.137l-27.42-4.306a2.46 2.46 0 0 1-1.908-1.527L40.08 60.32c-.5-1.265.12-2.695 1.384-3.196a2.46 2.46 0 0 1 1.299-.141z" id="q"/><filter x="-52.7%" y="-56.1%" width="205.4%" height="217.2%" id="r"><feGaussianBlur stdDeviation="-0.0896243321 1.71013413" in="SourceGraphic"/></filter><filter x="-74.0%" y="-79.9%" width="248.1%" height="264.7%" id="s"><feMorphology radius="0.3078" operator="dilate" in="SourceAlpha"/><feOffset dy="1" result="B"/><feMorphology radius="1" in="SourceAlpha"/><feOffset dy="1"/><feComposite in="B" operator="out" result="B"/><feGaussianBlur stdDeviation="9"/><feColorMatrix values="0 0 0 0 1 0 0 0 0 1 0 0 0 0 1 0 0 0 0.5 0"/></filter><path d="M42.762 38.56l27.697 4.476a2.46 2.46 0 0 1 1.902 1.539l11.9 30.61c.493 1.268-.135 2.695-1.403 3.187a2.46 2.46 0 0 1-1.274.137l-27.42-4.306a2.46 2.46 0 0 1-1.908-1.527L40.08 41.897c-.5-1.265.12-2.695 1.384-3.196a2.46 2.46 0 0 1 1.299-.141z" id="t"/><filter x="-30.0%" y="-99.6%" width="160.0%" height="299.1%" id="u"><feGaussianBlur stdDeviation=".84" in="SourceGraphic"/></filter><linearGradient x1="-52.4454397%" y1="-39.1844871%" x2="94.8366332%" y2="102.016244%" id="v"><stop stop-color="#f5f6fd" stop-opacity="0" offset="0%"/><stop stop-color="#dd5a13" offset="100%"/></linearGradient><linearGradient x1="91.5467653%" y1="80.2837598%" x2="-35.3369773%" y2="56.0167307%" id="w"><stop stop-color="#f5f6fd" stop-opacity="0" offset="0%"/><stop stop-color="#0177c7" offset="100%"/></linearGradient><circle id="x" cx="2.067" cy="2.066" r="2.067"/><filter x="-68.5%" y="-50.7%" width="237.0%" height="201.4%" id="y"><feGaussianBlur stdDeviation=".682" in="SourceGraphic"/></filter><linearGradient x1="24.8596393%" y1="-47.1270901%" x2="50%" y2="100%" id="z"><stop stop-color="#c26607" offset="0%"/><stop stop-color="#e6925a" offset="100%"/></linearGradient><linearGradient x1="-31.2464244%" y1="155.065757%" x2="100%" y2="-3.95260232%" id="AA"><stop stop-color="#f5f6fd" stop-opacity="0" offset="0%"/><stop stop-color="#df1243" offset="100%"/></linearGradient><linearGradient x1="-26.1182669%" y1="-37.7844392%" x2="94.834428%" y2="100%" id="AB"><stop stop-color="#f5f6fd" stop-opacity="0" offset="0%"/><stop stop-color="#f8cb5a" offset="100%"/></linearGradient><circle id="AC" cx="2.067" cy="2.066" r="2.067"/><circle id="AD" cx="2.067" cy="2.066" r="2.067"/><circle id="AE" cx="2.067" cy="2.066" r="2.067"/><circle id="AF" cx="2.067" cy="2.066" r="2.067"/><circle id="AG" cx="2.067" cy="2.066" r="2.067"/><circle id="AH" cx="2.067" cy="2.066" r="2.067"/><linearGradient x1="73.9217881%" y1="12.5459694%" x2="50%" y2="65.0729574%" id="AI"><stop stop-color="#7bafdf" offset="0%"/><stop stop-color="#4577bb" offset="100%"/></linearGradient><linearGradient x1="61.1678933%" y1="18.360086%" x2="54.7416228%" y2="73.9724865%" id="AJ"><stop stop-color="#7bafdf" offset="0%"/><stop stop-color="#4577bb" offset="100%"/></linearGradient><linearGradient x1="0%" y1="45.2818917%" x2="50%" y2="53.5385048%" id="AK"><stop stop-color="#7bafdf" offset="0%"/><stop stop-color="#4577bb" offset="100%"/></linearGradient><path id="AL" d="M0 26.345l22.724 10.427v54.98L0 81.325z"/><path id="AM" d="M0 25.786L47.923 0 69.08 9.55 23.506 37.246z"/><path id="AN" d="M169.822 101.048c.454-.158.822-.736.822-1.3s-.368-.876-.822-.717-.822.736-.822 1.3.368.876.822.717z"/><path id="AO" d="M162.443 132.275c2.26-.787 4.1-3.663 4.1-6.422s-1.83-4.358-4.1-3.57-4.1 3.663-4.1 6.422 1.83 4.358 4.1 3.57z"/><path id="AP" d="M162.673 130.135c1.382-.482 2.502-2.24 2.502-3.93s-1.12-2.666-2.502-2.184-2.502 2.24-2.502 3.93 1.12 2.666 2.502 2.184z"/><path id="AQ" d="M27.867 23.3a.44.44 0 0 1 .441.441v18.14h-.882v-18.14a.44.44 0 0 1 .441-.441z"/><path id="AR" d="M20.148 16.028c1.552.834 2.812 1.396 3.778 1.687s2.505.572 4.617.844l-3.358-2.11-5.037-.422z"/><path id="AS" d="M1.79 0c0 .55.827.69.964 1.102s.964.55.964 1.377v1.24C4.914 1.423 5.098.184 4.27 0 3.03-.275 1.79-.55 1.79 0z"/><path id="AT" d="M378.1 263.88c-.947.86-1.737 1.3-2.368 1.3-.947 0-1.42 1.72-1.42 2.15s1.895 1.72 4.263.43l4.737-2.58c0-.86-.474-1.433-1.42-1.72s-2.21-.143-3.79.43z"/><path id="AU" d="M342.917 150c1.15 0 2.083-1.567 2.083-3.5s-.933-3.5-2.083-3.5h-.833c-.833 1.495-1.25 2.66-1.25 3.5 0 .984.417 2.15 1.25 3.5h.833z"/><path id="AV" d="M347.087 163.462c.116-.258.67-.412 1.663-.462l3.742 1.385 2.08 1.846c.336.594.475 1.055.416 1.385s-.336.637-.832.923l-1.663.462-2.08-.923c-1.386-.615-2.495-1.538-3.326-2.77-.116-.972-.116-1.588 0-1.846z"/></defs><g transform="translate(3 52)" fill="none" fill-rule="evenodd"><g class="B"><path d="M17.357 206.174L259.765 77.59a59.13 59.13 0 0 1 55.418 0L557.865 206.32c10.818 5.74 14.936 19.16 9.198 29.98-2.05 3.864-5.196 7.035-9.043 9.115l-241.646 130.65a56.36 56.36 0 0 1-53.299.166L17.324 245.334c-10.81-5.757-14.904-19.186-9.147-29.995 2.078-3.902 5.275-7.093 9.18-9.164z" fill="url(#A)" opacity=".482"/><path d="M0 209.766v14.018a16.63 16.63 0 0 0 8.238 14.357L226.69 365.84c17.175 10.04 38.413 10.106 55.65.174l222.325-128.1c4.877-2.8 7.735-8.145 7.372-13.762l-1.258-19.468L0 209.766z" class="N"/><path d="M12.124 191.264L227.443 68.31a59.13 59.13 0 0 1 58.643 0l215.57 123.097c10.635 6.073 14.333 19.617 8.26 30.25-1.935 3.388-4.73 6.206-8.102 8.17l-214.83 125.036a56.36 56.36 0 0 1-56.384.183L12.1 229.756C1.467 223.665-2.208 210.114 3.884 199.5c1.965-3.427 4.8-6.267 8.24-8.226z" class="P"/><g fill="#48658d" opacity=".256"><ellipse cx="334.348" cy="172.012" rx="3.431" ry="2.139"/><ellipse cx="306.039" cy="156.611" rx="3.431" ry="2.139"/><ellipse cx="284.593" cy="142.921" rx="3.431" ry="2.139"/><ellipse cx="261.431" cy="128.375" rx="3.431" ry="2.139"/><ellipse cx="382.386" cy="143.776" rx="3.431" ry="2.139"/><ellipse cx="354.078" cy="128.375" rx="3.431" ry="2.139"/><ellipse cx="332.632" cy="114.685" rx="3.431" ry="2.139"/><ellipse cx="309.47" cy="100.139" rx="3.431" ry="2.139"/><ellipse cx="356.651" cy="155.755" rx="3.431" ry="2.139"/><ellipse cx="328.343" cy="140.354" rx="3.431" ry="2.139"/><ellipse cx="306.897" cy="126.664" rx="3.431" ry="2.139"/><ellipse cx="283.735" cy="112.118" rx="3.431" ry="2.139"/></g></g><g transform="translate(378 131)"><g transform="translate(.261 .294)"><use xlink:href="#AL" class="B I"/><g transform="translate(22.724 9.084)"><path fill="#97baea" d="M0 27.028L46.356 0v55.14L0 81.217z" class="B"/><mask class="C"><use xlink:href="#C"/></mask><use fill="#0177c7" xlink:href="#C" class="B"/></g><use xlink:href="#AM" class="B C"/></g><g transform="translate(28.438 19.371)"><mask id="AW" class="C"><use xlink:href="#D"/></mask><g class="B"><use fill="#c7defd" xlink:href="#D"/><path fill="#f4d27c" mask="url(#AW)" d="M9.7 13.178l6.363 5.45L.91 27.707l-5-7.267z"/></g></g><g transform="translate(42.981 42.082)"><mask id="AX" class="C"><use xlink:href="#E"/></mask><g class="B"><use xlink:href="#E" class="E"/><ellipse mask="url(#AX)" cx="0" cy="1.363" rx="1" ry="1.363" class="D"/></g></g><g transform="translate(42.981 48.441)"><mask id="AY" class="C"><use xlink:href="#F"/></mask><g class="B"><use xlink:href="#F" class="E"/><ellipse mask="url(#AY)" cx="0" cy="1.363" rx="1" ry="1.363" class="D"/></g></g><g transform="translate(42.981 54.8)"><mask id="AZ" class="C"><use xlink:href="#G"/></mask><g class="B"><use xlink:href="#G" class="E"/><ellipse mask="url(#AZ)" cx="0" cy="1.363" rx="1" ry="1.363" class="D"/></g></g><g transform="translate(46.617 40.265)"><mask id="Aa" class="C"><use xlink:href="#H"/></mask><g class="B"><use xlink:href="#H" class="E"/><ellipse mask="url(#Aa)" cx="0" cy="1.363" rx="1" ry="1.363" class="D"/></g></g><g transform="translate(46.617 46.624)"><mask id="Ab" class="C"><use xlink:href="#I"/></mask><g class="B"><use xlink:href="#I" class="E"/><ellipse mask="url(#Ab)" cx="0" cy="1.363" rx="1" ry="1.363" class="D"/></g></g><g transform="translate(46.617 52.983)"><mask id="Ac" class="C"><use xlink:href="#J"/></mask><g class="B"><use xlink:href="#J" class="E"/><ellipse mask="url(#Ac)" cx="0" cy="1.363" rx="1" ry="1.363" class="D"/></g></g><g transform="translate(50.253 38.448)"><mask id="Ad" class="C"><use xlink:href="#K"/></mask><g class="B"><use xlink:href="#K" class="E"/><ellipse mask="url(#Ad)" cx="0" cy="1.363" rx="1" ry="1.363" class="D"/></g></g><g transform="translate(50.253 44.807)"><mask id="Ae" class="C"><use xlink:href="#L"/></mask><g class="B"><use xlink:href="#L" class="E"/><ellipse mask="url(#Ae)" cx="0" cy="1.363" rx="1" ry="1.363" class="D"/></g></g><g transform="translate(50.253 51.166)"><mask id="Af" class="C"><use xlink:href="#M"/></mask><g class="B"><use xlink:href="#M" class="E"/><ellipse mask="url(#Af)" cx="0" cy="1.363" rx="1" ry="1.363" class="D"/></g></g><g transform="translate(53.889 36.631)"><mask id="Ag" class="C"><use xlink:href="#N"/></mask><g class="B"><use xlink:href="#N" class="E"/><ellipse mask="url(#Ag)" cx="0" cy="1.363" rx="1" ry="1.363" class="D"/></g></g><g transform="translate(53.889 42.99)"><mask id="Ah" class="C"><use xlink:href="#O"/></mask><g class="B"><use xlink:href="#O" class="E"/><ellipse mask="url(#Ah)" cx="0" cy="1.363" rx="1" ry="1.363" class="D"/></g></g><g transform="translate(53.889 49.349)"><mask id="Ai" class="C"><use xlink:href="#P"/></mask><g class="B"><use xlink:href="#P" class="E"/><ellipse mask="url(#Ai)" cx="0" cy="1.363" rx="1" ry="1.363" class="D"/></g></g></g><g transform="translate(417 157)"><g transform="translate(.261 .294)"><use xlink:href="#AL" class="B I"/><g transform="translate(22.724 9.084)"><path fill="#97baea" d="M0 27.028L46.356 0v55.14L0 81.217z" class="B"/><mask class="C"><use xlink:href="#Q"/></mask><use fill="#0177c7" xlink:href="#Q" class="B"/></g><use xlink:href="#AM" class="B C"/></g><g transform="translate(28.438 19.371)"><mask id="Aj" class="C"><use xlink:href="#R"/></mask><g class="B"><use fill="#c7defd" xlink:href="#R"/><path fill="#df1243" mask="url(#Aj)" d="M23.178 5.905l6.363 5.45L.91 27.707l-5-7.267z"/></g></g><g transform="translate(42.981 42.082)"><mask id="Ak" class="C"><use xlink:href="#S"/></mask><g class="B"><use xlink:href="#S" class="E"/><ellipse mask="url(#Ak)" cx="0" cy="1.363" rx="1" ry="1.363" class="D"/></g></g><g transform="translate(42.981 48.441)"><mask id="Al" class="C"><use xlink:href="#T"/></mask><g class="B"><use xlink:href="#T" class="E"/><ellipse mask="url(#Al)" cx="0" cy="1.363" rx="1" ry="1.363" class="D"/></g></g><g transform="translate(42.981 54.8)"><mask id="Am" class="C"><use xlink:href="#U"/></mask><g class="B"><use xlink:href="#U" class="E"/><ellipse mask="url(#Am)" cx="0" cy="1.363" rx="1" ry="1.363" class="D"/></g></g><g transform="translate(46.617 40.265)"><mask id="An" class="C"><use xlink:href="#V"/></mask><g class="B"><use xlink:href="#V" class="E"/><ellipse mask="url(#An)" cx="0" cy="1.363" rx="1" ry="1.363" class="D"/></g></g><g transform="translate(46.617 46.624)"><mask id="Ao" class="C"><use xlink:href="#W"/></mask><g class="B"><use xlink:href="#W" class="E"/><ellipse mask="url(#Ao)" cx="0" cy="1.363" rx="1" ry="1.363" class="D"/></g></g><g transform="translate(46.617 52.983)"><mask id="Ap" class="C"><use xlink:href="#X"/></mask><g class="B"><use xlink:href="#X" class="E"/><ellipse mask="url(#Ap)" cx="0" cy="1.363" rx="1" ry="1.363" class="D"/></g></g><g transform="translate(50.253 38.448)"><mask id="Aq" class="C"><use xlink:href="#Y"/></mask><g class="B"><use xlink:href="#Y" class="E"/><ellipse mask="url(#Aq)" cx="0" cy="1.363" rx="1" ry="1.363" class="D"/></g></g><g transform="translate(50.253 44.807)"><mask id="Ar" class="C"><use xlink:href="#Z"/></mask><g class="B"><use xlink:href="#Z" class="E"/><ellipse mask="url(#Ar)" cx="0" cy="1.363" rx="1" ry="1.363" class="D"/></g></g><g transform="translate(50.253 51.166)"><mask id="As" class="C"><use xlink:href="#a"/></mask><g class="B"><use xlink:href="#a" class="E"/><ellipse mask="url(#As)" cx="0" cy="1.363" rx="1" ry="1.363" class="D"/></g></g><g transform="translate(53.889 36.631)"><mask id="At" class="C"><use xlink:href="#b"/></mask><g class="B"><use xlink:href="#b" class="E"/><ellipse mask="url(#At)" cx="0" cy="1.363" rx="1" ry="1.363" class="D"/></g></g><g transform="translate(53.889 42.99)"><mask id="Au" class="C"><use xlink:href="#c"/></mask><g class="B"><use xlink:href="#c" class="E"/><ellipse mask="url(#Au)" cx="0" cy="1.363" rx="1" ry="1.363" class="D"/></g></g><g transform="translate(53.889 49.349)"><mask id="Av" class="C"><use xlink:href="#d"/></mask><g class="B"><use xlink:href="#d" class="E"/><ellipse mask="url(#Av)" cx="0" cy="1.363" rx="1" ry="1.363" class="D"/></g></g></g><g class="B"><g fill="#48658d" opacity=".256"><ellipse cx="163.348" cy="278.012" rx="3.431" ry="2.139"/><ellipse cx="135.039" cy="262.611" rx="3.431" ry="2.139"/><ellipse cx="113.593" cy="248.921" rx="3.431" ry="2.139"/><ellipse cx="90.431" cy="234.375" rx="3.431" ry="2.139"/><ellipse cx="211.386" cy="249.776" rx="3.431" ry="2.139"/><ellipse cx="183.078" cy="234.375" rx="3.431" ry="2.139"/><ellipse cx="161.632" cy="220.685" rx="3.431" ry="2.139"/><ellipse cx="138.47" cy="206.139" rx="3.431" ry="2.139"/><ellipse cx="185.651" cy="261.755" rx="3.431" ry="2.139"/><ellipse cx="157.343" cy="246.354" rx="3.431" ry="2.139"/><ellipse cx="135.897" cy="232.664" rx="3.431" ry="2.139"/><ellipse cx="112.735" cy="218.118" rx="3.431" ry="2.139"/></g><path d="M164.4 175.872l77-39.872 123.9 71.7-73.5 43.72z" class="Q"/><path d="M291.8 251.418l73.15-43.37v7.695l-73.15 44.42zm54 49.897l80.85-48.266v7.695L345.8 310.06z" fill="#9cbeeb"/><path d="M351 298l-59.2-37.837 72.8-44.07L426.5 253z" class="Q"/><path d="M291.8 251.42l-127.4-75.547v7.695l127.4 76.596zm53.7 50.336L156.35 188.113v7.695L345.5 310.5z" class="I"/><path d="M345.5 301.5l7-4.5-188.1-114.133-8.05 5.246z" class="Q"/><path fill="#84a6cc" d="M51.91 201.218l35.903-21.802 7.272 9.084-34.995 19.53z"/><path d="M60.09 222.217l199.514-113.283V3.63c0-2.006-1.627-3.633-3.633-3.633-.63 0-1.25.164-1.8.477L68.34 106.41a16.35 16.35 0 0 0-8.252 14.203v101.603z" class="J"/><g fill="url(#e)"><path d="M79.177 190.233l5.454-1.99v-18.228a2.09 2.09 0 0 0-2.727-1.99c-1.625.52-2.727 2.03-2.727 3.737v18.47z"/><path d="M90.085 184.782l5.454-2.74v-26.074c0-1.073-.87-1.943-1.943-1.943-.27 0-.537.056-.784.165-1.657.73-2.727 2.372-2.727 4.183v26.41z"/><path d="M100 179.578l5.454-3.435v-33.305a1.84 1.84 0 0 0-2.727-1.608c-1.683.93-2.727 2.7-2.727 4.624v33.724z"/><path d="M111 172.462l5.454-2.156V146.02c0-1.134-.92-2.054-2.054-2.054-.23 0-.457.038-.673.113-1.632.566-2.727 2.105-2.727 3.833v24.55z"/><path d="M122 165.588l5.454-3.435v-48.315a1.84 1.84 0 0 0-2.727-1.608c-1.683.93-2.727 2.7-2.727 4.624v48.735z"/><path d="M133 161.027l5.454-4.552V91.714c0-.947-.767-1.714-1.714-1.714-.364 0-.72.116-1.013.33A6.67 6.67 0 0 0 133 95.71v65.317z"/><path d="M143 154.027l5.454-5.062V76.69a1.67 1.67 0 0 0-2.727-1.295C144 76.802 143 78.9 143 81.136v72.89z"/></g><path d="M80.086 189.863l5-2.725v2.725l-5 2.725zm10.908-6.36l5-2.725v2.725l-5 2.725zm10.006-6.78l5-2.725v2.725l-5 2.725zm11-7l5-2.725v2.725l-5 2.725zm11-7l5-2.725v2.725l-5 2.725zm11-5l5-2.725v2.725l-5 2.725zm10-6l5-2.725v2.725l-5 2.725zm50.3-27.22l34.7-18.912a3 3 0 0 1 4.436 2.634v.997L189 133.45c0-3.73 2.037-7.16 5.3-8.944z" class="F"/><path d="M81.322 164.294c.73-.254 1.322-1.184 1.322-2.075s-.592-1.408-1.322-1.154S80 162.25 80 163.14s.592 1.408 1.322 1.154zm11-14c.73-.254 1.322-1.184 1.322-2.075s-.592-1.408-1.322-1.154S91 148.25 91 149.14s.592 1.408 1.322 1.154zm10-12c.73-.254 1.322-1.184 1.322-2.075s-.592-1.408-1.322-1.154S101 136.25 101 137.14s.592 1.408 1.322 1.154zm10 3c.73-.254 1.322-1.184 1.322-2.075s-.592-1.408-1.322-1.154S111 139.25 111 140.14s.592 1.408 1.322 1.154zm11-32c.73-.254 1.322-1.184 1.322-2.075s-.592-1.408-1.322-1.154S122 107.25 122 108.14s.592 1.408 1.322 1.154zm12-22c.73-.254 1.322-1.184 1.322-2.075s-.592-1.408-1.322-1.154S134 85.25 134 86.14s.592 1.408 1.322 1.154zm10-15c.73-.254 1.322-1.184 1.322-2.075s-.592-1.408-1.322-1.154S144 70.25 144 71.14s.592 1.408 1.322 1.154z" class="C"/><path d="M60.09 208.486l-8.635-7.722v15.443l8.635 6.813z" class="I"/><path d="M60.09 223.056l199.97-115.162V92.66L60.09 208.276z" class="G"/><g opacity=".126" stroke="#fff" class="R"><path d="M160 63v80m10.25-85v80m10-88v80m10-85v80m10-87v80m10-86v80m11-84v80m10-87v80m12-87v80m10-85v80"/><path d="M156.5 130.5l100-56"/><path d="M156.5 115.5l100-56"/><path d="M156.5 101.5l100-56"/><path d="M153.5 75.5l104-58"/><path d="M153.5 88.5l104-58"/></g><g class="C"><use xlink:href="#AN"/><use xlink:href="#AN" x="19" y="9"/><use xlink:href="#AN" x="33" y="-5"/><use xlink:href="#AN" x="38" y="-42"/><use xlink:href="#AN" x="52" y="-32"/></g><use xlink:href="#AN" x="68" y="-18" class="F"/><use xlink:href="#AN" x="76" y="-37" class="C"/><g class="F"><use xlink:href="#AN" x="81" y="-70"/><use xlink:href="#AN" x="7" y="-30"/></g><use xlink:href="#AN" y="27" class="C"/><g class="K L"><path d="M163.5 127.5l26-45 31 12 11.5-50 20 6" stroke-dasharray="0.9082409262657166"/><use xlink:href="#AO"/></g><use xlink:href="#AP" class="G"/><use xlink:href="#AO" x="27" y="-44" class="K L"/><use xlink:href="#AP" x="27" y="-44" class="G"/><use xlink:href="#AO" x="58" y="-33" class="K L"/><use xlink:href="#AP" x="58" y="-33" class="G"/><use xlink:href="#AO" x="69" y="-83" class="K L"/><use xlink:href="#AP" x="69" y="-83" class="G"/><use xlink:href="#AO" x="88" y="-78" class="K L"/><use xlink:href="#AP" x="88" y="-78" class="G"/></g><g transform="translate(122 164)"><g class="B"><path d="M19.728 65.488v1.6a1.09 1.09 0 0 0 .534.937l21.408 12.68a3.63 3.63 0 0 0 3.679.012L67.15 68a.97.97 0 0 0 .48-.836v-2.07l-47.903.394z" fill="#bcc0e5"/><path d="M19.548 65.848v29.8a1.09 1.09 0 0 0 .535.937l21.41 12.65a3.63 3.63 0 0 0 3.672.012L66.97 96.56a.97.97 0 0 0 .481-.836V65.455l-47.903.393z" class="N"/><path d="M19.747 64.203l21.91-12.62a3.87 3.87 0 0 1 3.864 0L67.45 64.212a1.45 1.45 0 0 1 .01 2.51l-21.82 12.81a3.69 3.69 0 0 1-3.715.012l-22.18-12.826a1.45 1.45 0 0 1 .002-2.514z" stroke="#fff" stroke-width=".54" class="P"/></g><g transform="matrix(.999848 .017452 -.017452 .999848 1.637855 .586112)"><g transform="translate(23.292 45.802)"><mask id="Aw" class="C"><use xlink:href="#f"/></mask><g class="B"><use fill="#d3712f" transform="matrix(.766044 -.642788 .642788 .766044 -7.625513 16.479965)" xlink:href="#f"/><path d="M6.868 7.768l17.08 2.782a1.64 1.64 0 0 1 1.268 1.029l7.363 19.09a1.64 1.64 0 0 1-1.788 2.212l-16.9-2.676a1.64 1.64 0 0 1-1.271-1.022L5.076 9.988a1.64 1.64 0 0 1 1.792-2.22z" mask="url(#Aw)" transform="matrix(.766044 -.642788 .642788 .766044 -8.659552 16.856324)" class="F"/></g></g><g class="B"><path d="M20.77 62.727c-.188.108-.342.267-.446.458-.314.575-.107 1.3.463 1.616L42.73 77.023c.932.52 2.068.49 2.972-.078l17.6-11.04c.17-.107.31-.256.408-.432.316-.574.112-1.3-.457-1.618L42.604 52.25a3.79 3.79 0 0 0-3.76.023L20.77 62.727zm-.292-.516L38.55 51.756c1.342-.776 2.987-.786 4.338-.027l20.648 11.607c.852.48 1.16 1.566.685 2.427-.146.265-.357.49-.612.65l-17.6 11.04a3.5 3.5 0 0 1-3.567.093L20.502 65.322c-.854-.476-1.165-1.56-.694-2.424.156-.287.388-.525.67-.687z" fill="url(#g)"/><path d="M14.177 44.393l27.295-32.615 30.237 25.44-27.856 33.286c-.74.884-1.9 1.316-3.03 1.136l-18.922-2.98-8.262-20.954c-.44-1.12-.235-2.39.537-3.31z" fill="url(#h)" opacity=".576" transform="matrix(.766044 -.642788 .642788 .766044 -16.865213 37.121116)"/><g filter="url(#j)" transform="matrix(.766044 -.642788 .642788 .766044 -22.679851 39.034156)"><use fill="#000" filter="url(#k)" xlink:href="#i"/><use xlink:href="#i" class="O R"/></g><g opacity=".2" filter="url(#j)" transform="matrix(.766044 -.642788 .642788 .766044 -14.790121 36.162529)"><use fill="#000" filter="url(#k)" xlink:href="#l"/><use xlink:href="#l" class="O R"/></g><use xlink:href="#AQ" fill="url(#m)"/><g fill="url(#n)"><path d="M40.222 27.43a.44.44 0 0 1 .441.441v18.14h-.882V27.87a.44.44 0 0 1 .441-.441z"/><use xlink:href="#AQ" x="25.887" y="-2.064"/><use xlink:href="#AQ" x="21.768" y="17.697"/><use xlink:href="#AQ" x="7.06" y="22.416"/><path d="M24.632 41.882a.44.44 0 0 1 .441.441v18.14H24.2v-18.14a.44.44 0 0 1 .441-.441z"/><path d="M59.93 38.048a.44.44 0 0 1 .441.441v18.14H59.5V38.49a.44.44 0 0 1 .441-.441z"/></g></g></g><g transform="translate(65 17)"><g class="B"><path d="M28.204 99.192v2.416c0 .578.305 1.112.803 1.406l32.257 19.043c1.697 1.002 3.802 1.008 5.505.017l32.85-19.114a1.45 1.45 0 0 0 .721-1.255V98.6l-72.136.59z" fill="#bcc0e5"/><path d="M27.933 99.732v44.74c0 .578.306 1.114.804 1.407l32.26 18.997c1.694.998 3.794 1.004 5.494.017l32.853-19.068a1.45 1.45 0 0 0 .723-1.255V99.143l-72.136.59z" class="N"/><path d="M28.232 97.263l33.013-18.95c1.8-1.027 3.99-1.027 5.78 0l33.038 18.964a2.18 2.18 0 0 1 .804 2.972c-.19.33-.46.604-.79.795L67.203 120.28c-1.715 1.003-3.836 1-5.558.018l-33.416-19.26a2.18 2.18 0 0 1-.799-2.974c.192-.333.47-.6.802-.8z" stroke="#fff" stroke-width=".81" class="P"/></g><g transform="matrix(.999848 .017452 -.017452 .999848 2.478274 .902395)"><g transform="translate(33.569 69.646)"><mask id="Ax" class="C"><use xlink:href="#o"/></mask><g class="B"><use fill="#d3712f" transform="matrix(.766044 -.642788 .642788 .766044 -11.423058 24.795025)" xlink:href="#o"/><path d="M10.33 11.657l25.742 4.18a2.46 2.46 0 0 1 1.902 1.542l11.09 28.654c.49 1.268-.14 2.694-1.408 3.185a2.46 2.46 0 0 1-1.272.136l-25.484-4.02a2.46 2.46 0 0 1-1.907-1.53L7.644 15c-.498-1.265.123-2.695 1.39-3.193a2.46 2.46 0 0 1 1.297-.139z" mask="url(#Ax)" transform="matrix(.766044 -.642788 .642788 .766044 -12.975037 25.359899)" class="F"/></g></g><g class="B"><path d="M29.77 95.048a1.78 1.78 0 0 0-.672.688c-.473.864-.16 1.95.697 2.426l33.043 18.344c1.403.78 3.115.734 4.476-.117l26.502-16.57a1.78 1.78 0 0 0 .614-.649c.476-.862.168-1.95-.687-2.428L62.65 79.322c-1.763-.988-3.91-.975-5.662.035L29.77 95.048zm-.44-.775l27.218-15.692c2.02-1.165 4.5-1.18 6.533-.04l31.094 17.42a2.69 2.69 0 0 1 1.031 3.642 2.67 2.67 0 0 1-.921.974l-26.502 16.57c-1.634 1.02-3.687 1.075-5.37.14L29.368 98.943a2.69 2.69 0 0 1-1.045-3.638 2.67 2.67 0 0 1 1.008-1.032z" fill="url(#g)"/><path d="M19.845 67.53l41.1-48.95 45.534 38.182-41.956 49.968c-1.1 1.322-2.83 1.966-4.536 1.698l-28.512-4.478-12.44-31.444c-.665-1.682-.355-3.593.808-4.978z" fill="url(#p)" opacity=".576" transform="matrix(.766044 -.642788 .642788 .766044 -26.195315 55.094395)"/><g filter="url(#r)" transform="matrix(.766044 -.642788 .642788 .766044 -34.92277 57.964759)"><use fill="#000" filter="url(#s)" xlink:href="#q"/><use xlink:href="#q" class="O T"/></g><g opacity=".2" filter="url(#r)" transform="matrix(.766044 -.642788 .642788 .766044 -23.081158 53.654765)"><use fill="#000" filter="url(#s)" xlink:href="#t"/><use xlink:href="#t" class="O T"/></g><path d="M40.46 35.874c.367 0 .664.297.664.664v27.224h-1.33V36.538c0-.367.297-.664.664-.664z" fill="url(#m)"/><g fill="url(#n)"><path d="M59.064 42.07c.367 0 .664.297.664.664V69.96H58.4V42.736c0-.367.297-.664.664-.664z"/><path d="M79.44 32.775c.367 0 .664.297.664.664v27.224h-1.33V33.44c0-.367.297-.664.664-.664z"/><path d="M73.24 62.435c.367 0 .664.297.664.664v27.224h-1.33V63.1c0-.367.297-.664.664-.664z"/><path d="M51.09 69.517c.367 0 .664.297.664.664v27.224h-1.33V70.182c0-.367.297-.664.664-.664z"/><path d="M35.587 63.763c.367 0 .664.297.664.664V91.65h-1.33V64.427c0-.367.297-.664.664-.664z"/><path d="M88.743 58.008c.367 0 .664.297.664.664v27.224h-1.33V58.672c0-.367.297-.664.664-.664z"/></g></g></g></g></g><g transform="translate(196 144)" class="B"><path d="M.532 42.874l11.753 3.523 50.258-30.37 2.1-5.905C57.027 7.774 52.867 6.6 52.162 6.6c-1.96 0-3.358 1.125-4.198 3.374-.56-1.968-1.54-2.953-2.938-2.953s-2.658.984-3.778 2.953l7.023-6.178L35.6.06c-.718-.125-1.494-.054-2.328.213C27.116 2.24 22.64 7.584 19.84 16.3c-2.748-.973-5.267-.27-7.556 2.11s-4.108 5.894-5.457 10.545c-1.513-1.71-3.192-1.15-5.037 1.687S-.474 37.555.532 42.874z" class="I"/><path d="M12.336 46.7l55.356-33.35c-.56-2.25-1.82-3.374-3.778-3.374s-3.358 1.125-4.198 3.374c-.56-1.968-1.54-2.953-2.938-2.953S54.12 11.38 53 13.348c-1.308-7.75-3.967-10.983-7.975-9.7-6.156 1.968-10.634 7.31-13.432 16.028-2.748-.973-5.267-.27-7.556 2.11S19.93 27.68 18.582 32.33c-1.513-1.71-3.192-1.15-5.037 1.687S11.297 41.08 12.336 46.7z" class="C"/><g fill="#91b9df"><use xlink:href="#AR" filter="url(#u)"/><use xlink:href="#AR" x="-11.753" y="11.81" filter="url(#u)"/></g><path d="M20.148 16.45c1.68 0 3.078.28 4.198.844s2.1 1.125 2.938 1.687l-3.778 2.1-5.037 1.687 1.68-6.327zM6.716 27.838c3.077.364 3.358.422 5.037 1.265 1.12.562 2.1 1.125 2.938 1.687l-3.778 2.1-5.037 1.687-1.26-6.327c.56-.28 1.26-.422 2.1-.422z" class="I"/></g><g transform="translate(244 145)"><path d="M75 .215c.12-.065.243-.132.336-.2L75.343 0c-.006.033-.047.074-.14.12L75 .215" fill="#ccccce"/><ellipse fill="#d2d4e2" cx="39.608" cy="65.459" rx="28.632" ry="10.447" class="B"/><ellipse stroke="#4577bb" stroke-width="1.816" cx="38.699" cy="65.459" rx="35.903" ry="15.898"/><path d="M2.68 20.614c.006-.502.723 1.162 2.15 5v40.03c-.01.753-2.158 1.032-2.15.28v-45.3zM38.722 5.446c.01-.717.63-1.3 1.382-1.282s1.355.597 1.345 1.313l-.616 42.843c-.01.717-.63 1.3-1.382 1.282s-1.355-.597-1.345-1.313l.616-42.843zm30.392 7.11c.01-.717 2.344.62 2.334 1.337l-.616 42.843c-.01.717-.63 1.3-1.382 1.282s-1.355-.597-1.345-1.313l1.008-44.15zm-8.62 20.46c1.84-.777 2.757-.915 2.75-.413l-.578 44.984c-.01.753-.628 1.355-1.38 1.345s-1.355-.628-1.346-1.38l.555-44.536z" class="B J"/><g transform="translate(21.884 42.294)"><g class="B"><path fill="url(#v)" d="M15.826 2.52v14.532l15.58 7.86v-13.79z"/><path fill="url(#w)" transform="matrix(-1 0 0 -1 17.409032 25.653902)" d="M1.583 8.6v14.087l13.502-5.2.742-14.532z"/></g><g transform="translate(13.749)"><mask id="Ay" class="C"><use xlink:href="#x"/></mask><g class="B"><use xlink:href="#x" class="F"/><use xlink:href="#AS" filter="url(#y)" mask="url(#Ay)" class="H"/></g></g><g class="B"><path fill="url(#z)" d="M1.737 22.614l14.12-5.353 15.582 7.787-12.173 5.84z"/><path fill="url(#AA)" d="M20.426 15.125l-.593 14.977 11.573-5.388v-14.63z"/><path fill="url(#AB)" d="M2.325 7.266l-.742 15.422 18.398 9.5.742-16.608z"/></g><g transform="translate(28.586 8.304)"><mask id="Az" class="C"><use xlink:href="#AC"/></mask><g class="B"><use xlink:href="#AC" class="F"/><use xlink:href="#AS" filter="url(#y)" mask="url(#Az)" class="H"/></g></g><g transform="translate(17.805 13.84)"><mask id="BA" class="C"><use xlink:href="#AD"/></mask><g class="B"><use xlink:href="#AD" class="F"/><use xlink:href="#AS" filter="url(#y)" mask="url(#BA)" class="H"/></g></g><g transform="translate(17.805 28.669)"><mask id="BB" class="C"><use xlink:href="#AE"/></mask><g class="B"><use xlink:href="#AE" class="F"/><use xlink:href="#AS" filter="url(#y)" mask="url(#BB)" class="H"/></g></g><g transform="translate(0 20.76)"><mask id="BC" class="C"><use xlink:href="#AF"/></mask><g class="B"><use xlink:href="#AF" class="F"/><use xlink:href="#AS" filter="url(#y)" mask="url(#BC)" class="H"/></g></g><g transform="translate(29.477 22.54)"><mask id="BD" class="C"><use xlink:href="#AG"/></mask><g class="B"><use xlink:href="#AG" class="F"/><use xlink:href="#AS" filter="url(#y)" mask="url(#BD)" class="H"/></g></g><g transform="translate(.989 6.228)"><mask id="BE" class="C"><use xlink:href="#AH"/></mask><g class="B"><use xlink:href="#AH" class="F"/><use xlink:href="#AS" filter="url(#y)" mask="url(#BE)" class="H"/></g></g></g><g class="B"><path d="M27.76 35.982l2.727.454-.555 44.117c-.01.753-.628 1.355-1.38 1.345s-1.355-.628-1.346-1.38l.555-44.536z" class="J"/><ellipse cx="38.245" cy="20.492" rx="37.267" ry="16.352" class="N"/><ellipse fill="#84a6cc" cx="38.245" cy="17.766" rx="37.267" ry="16.352"/><ellipse fill="#688ab1" cx="39.5" cy="15.5" rx="12.5" ry="6.5"/></g></g><g class="B"><path d="M369.5 216.5c-1.667 3.667-2.5 6.5-2.5 8.5 0 1.403-.492 8.26 0 20 .14 3.33.64 9.162 1.5 17.5h4c-.285-6.86-.285-12.026 0-15.5s1.118-8.474 2.5-15c.262 6.693.596 11.86 1 15.5s1.238 8.974 2.5 16h4c-.687-7.816-1.02-13.15-1-16 .043-6.24 1.104-10.22 1.5-12 1-4.5 4-12.5 2.5-16l-16-3.5v.5z" class="J"/><path d="M370.7 195.81c.18-2.135 2.866-3.33 8.058-3.584.816-.416 1.712-.266 2.7.448 1.827 1.335 3.586.887 4.93 2.688 1.67 2.236.897 8.064-1.345 12.095-.6 1.08-3.02 5.088.897 12.095.027.05-3.107 1.674-10.93.948-1.148-.107-3.315-.94-6.5-2.5 2.655-6.087 3.983-9.9 3.983-11.44 0-2.308-2.052-7.55-1.782-10.75z" class="D"/><path d="M363 213l3.5 2 4-7c1.613-5.038 2.446-8.26 2.5-9.662s-.613-2.516-2-3.338l-3.5 11.5-4.5 6.5z" fill="#e37932"/><path d="M359 212h11l4.698 12h-11z" class="S"/><path d="M370.69 219.44c-1.758.626-2.515-.998-3.69.56s2.097 2.856 2.956 2.36c.573-.33 1.415-.338 2.528-.023l1.792-2.896c-.2.718-.508.718-.923 0-.553-.957-.992-1.37-1.318-1.234.275.405-.174.817-1.346 1.234z" class="M"/><path fill="#e37932" d="M371.3 217.81l2.24 2.688 8.517-6.72 4.93-13.44-2.24-4.032-5.603 14.335z"/><path d="M374.276 176.546c1.345-1.344 4.034-2.688 5.386-.896 2.683-2.24 6.276 1.054 7.172 4.638.533 2.132.012 3.67.442 5.824.577 2.89 1.667 2.623 1.793 4.322.072.975-.4 3.142-.9 5.534-.136.662 1.09 3.265.9 3.874-.85 2.6-2.363 1.883-4.034 2.688-1.818.876-3.792 3.57-4.483 2.688-.313-.4-.913-3.05-.448-5.376.296-1.477 1.624-2.41 1.793-3.874.22-1.886-.307-3.766-.448-4.2-.897-2.688 1.674-3.153 1.35-5.218s-2.6-4.22-3.138-3.584c-.557.648-1.304.498-2.24-.448-.19.895-.5 1.887-.903 2.978-1.1 2.902-3.237-1.58-3.586-2.978-.897-3.584 0-4.638 1.345-5.982z" fill="#020f23"/><path d="M377.862 189.09v3.584c.897.3 1.793.448 2.7.448s1.345-.672 1.345-2.016l-.448-3.808-3.586 1.792z" fill="#c09272"/><path d="M376.694 181.04c-1.015.112-1.522.883-1.522 2.313 0 2.327.007 2.114.35 3.317s1.892 3.763 3.214 3.763 2.755-1.613 4.056-2.688.323-2.47 0-3.136.36-1.245-.448-2.24-.634 0-2.24-1.075c-.438-.293-.894-.83-1.367-1.613l-1.5 1.146c-.155.117-.34.19-.532.212z" class="M"/><g class="G"><use xlink:href="#AT"/><use xlink:href="#AT" x="-10" y="-1"/></g><path d="M360.75 217c.444 0 .834.294.956.72l.622 2.178a.47.47 0 0 1-.453.601c-.375 0-.71-.236-.835-.59l-.788-2.205a.53.53 0 0 1 .498-.706z" class="M"/><use xlink:href="#AU" fill="#b4bacd"/><ellipse cx="342.083" cy="146.5" rx="2.083" ry="3.5" class="S"/><circle fill="#091d3c" cx="342.083" cy="146.5" r="1"/><path d="M325.506 156L345 144.293 327.722 136 310 147.22z" class="G"/><path d="M335.974 126.73v7.67c0 1.94-.967 3.755-2.578 4.837l-6.174 4.146.438 4.898 13.785-8.816-.438-15.184-5.032 2.45z" fill="url(#AI)"/><path d="M313.137 126.73v7.67c0 1.94.967 3.755 2.578 4.837l6.174 4.146-.438 4.898-13.785-8.816.438-15.184 5.032 2.45z" fill="url(#AJ)"/><path fill="#b39037" d="M305 118.52L325 107l20 11.04-20 11.04z"/><path fill="#f8cb5a" d="M325.444 129.22l-.23 25.78L305 142.597V118.52z"/><path fill="#daae3e" d="M324.556 155l.112-25.865L345 118.04v24.8z"/><g class="G"><path d="M330.447 100.4l5.664-3.208c.608-.344 1.38-.13 1.724.477.108.2.164.405.164.623 0 1.334-.74 2.558-1.923 3.176l-2.613 1.366a6.8 6.8 0 0 0-3.646 6.219l1.262 43.98-3.23.965-.85-47.564a6.8 6.8 0 0 1 3.447-6.037z"/><path d="M341.206 92.34l4.95-3.073a1.21 1.21 0 0 1 1.662.389c.12.19.182.412.182.637 0 1.342-.718 2.582-1.883 3.25l-2.17 1.243a6.8 6.8 0 0 0-3.415 6.076l1.156 44.174-2.525.965-1.167-47.718a6.8 6.8 0 0 1 3.21-5.941z"/></g><path d="M310 146.89l15.506 8.667L345 144v1.444L325.506 157l-14.245-7.962a2.46 2.46 0 0 1-1.261-2.149z" fill="url(#AK)"/><use xlink:href="#AU" x="-20" y="12" fill="#b4bacd"/><ellipse cx="322.083" cy="158.5" rx="2.083" ry="3.5" class="S"/><circle fill="#091d3c" cx="322.083" cy="158.5" r="1"/><path d="M353.542 108.695c0 1.794-2.398 2.124-7.195.99-1.18-.28-2.065-1.262-2.22-2.465l-.67-4.742c-.286-1.25.325-3.498 1.833-6.746-.347-.24-.653-.73-.917-1.47-.396-1.11-.458-1.435-.458-2.39 0-.638-.153-.797-.458-.478 1.222-1.594 2.14-2.39 2.75-2.39.917 0 2.2 1.747 2.292 3.348.068 1.067-.238 2.195-.917 3.384-.272 1.844-.272 3.157 0 3.94s.578 2.675.917 5.675c3.36.206 5.042 1.322 5.042 3.348z" fill="#b2886a"/><g class="G"><use xlink:href="#AV"/><path d="M329 132l12-7v7.467L329.43 139z"/></g><path d="M358 131l-3.088 19.146.882 18.082c-.98.515-1.716.772-2.206.772s-1.225-.257-2.206-.772l-1.765-17.55v-9.573l-6.618-8.51L358 131z" class="J"/><use xlink:href="#AV" x="-9" y="2" class="G"/><path d="M348 105v1.81c.17 1.422.565 2.328 1.2 2.717.938.584 1.2 2.717 2.38.453s-.44-3.873-.794-4.076c-.502-.287-1.428-.59-2.778-.906z" fill="#17204a"/><path d="M343.24 132L341 149.378l1.345 18.43c.797.794 1.395 1.19 1.793 1.19s.996-.397 1.793-1.19V151.22l8.07-17.64-10.76-1.58z" class="J"/><path d="M342.164 118.478c-.656-1.746-1.638-7.766-.902-8.158.873-.465 1.794-1.51 2.8-2.06 2.1-1.158 4.31-2.258 5.766-2.258 2.148 0 4.057 3.36 4.057 6.72s1.417 10.078 1.803 12.957 2.705 4.32 2.254 5.76-1.92 3.53-6.375 4.32c-2.97.527-6.104.207-9.403-.96.962-3.96 1.413-7 1.352-9.118-.1-3.177-.45-4.8-1.352-7.2z" class="G"/><g transform="matrix(.987688 .156434 -.156434 .987688 328.687461 98.558772)"><g class="M"><path d="M5.958 3.05c1.12-.987 1.68-1.32 1.68-.997S6.923 3.7 5.492 6.06l.466-3.012z"/><path d="M18.122 11.458c-.054 3.066.215 3.096-4.77 5.423L8.3 19.15c-1.48.632-3.19-.054-3.824-1.534-.105-.245-.175-.503-.2-.767l-.706-5.074C3.3 10.51 3.086 9.04 2.915 7.366c-.336-.248-.627-.748-.873-1.5-.368-1.128-.424-1.456-.407-2.42.01-.644-.136-.807-.44-.49C2.42 1.366 3.333.577 3.932.588c.898.016 2.116 1.8 2.187 3.418.048 1.078-.272 2.212-.958 3.4-.094.373-.015.958.238 1.753s.975 2.37 2.164 4.725c.915-.95 1.978-1.736 3.187-2.36 1.814-.934 7.425-3.133 7.372-.067z"/></g><path d="M11.657 11.058l1.423 6.415c4.5-1.75 6.57-3.842 6.214-6.28s-1.615-3.266-3.776-2.48l-3.86 2.347z" fill="#17204a"/></g><g class="M"><path d="M338.91 97.386c-.303 1.293-.606 2.255-.91 2.887h.91c-.303 2.623 0 4.24.91 4.848.468.314 1.53.172 3.182-.426V109h4.545v-3.88c1.212-2.586 1.667-4.687 1.364-6.303-.455-2.424-2.273-5.818-5-5.818-1.502 0-3.3.457-4.35 1.294l-.196.168c-.713.665-.267 2.122-.455 2.924z"/><ellipse transform="matrix(.93358 -.358368 .358368 .93358 300.768237 105.167452)" cx="41.5" cy="19.5" rx="3.5" ry="1.5"/></g></g><path d="M338.875 89c-1.02 2.215-1.15 4.014-.383 5.398s2.075 2.092 3.926 2.123c-.266.05-.553.204-.862.467-.464.395-.465.62-.465.655-.017.287-.05.684.032.954l.433 1.196c.265-.93.41-1.327.43-1.196 2.28-.753.41 3.476-.43 2.13-.033-.036 1.947 3.272 3.448 3.272s2.484-.652 3.26-1.53c.644-.753 1.355-2.242 1.536-3.247 1.206-6.494-3.33-9.797-6.363-8.145-2.02 1.1-3.542.41-4.563-2.076z" fill="#000"/></g></svg>